<?xml version="1.0" encoding="UTF-8" standalone="no"?>
<svg xmlns="http://www.w3.org/2000/svg" height="176pt" width="176pt" version="1.1" viewBox="0 0 176 176">
 <path fill="#fff" d="m87.5 0c-48.323 0-87.5 39.177-87.5 87.5 0 48.316 39.177 87.5 87.5 87.5 48.316 0 87.5-39.184 87.5-87.5 0-48.323-39.184-87.5-87.5-87.5zm0.65625 141.48c-8.1992 0-16.223-1.6055-23.654-4.6914l-26.316 8.3984 8.5898-25.301c-3.4961-7.8359-5.3828-16.391-5.3789-25.199-0.007813-34.465 27.992-62.492 62.461-62.492 16.691 0.007813 32.367 6.5039 44.145 18.305 11.773 11.801 18.277 27.492 18.27 44.145-0.007813 34.457-28.035 62.484-62.5 62.484zm0 0"/>
 <path fill="#fff" d="m125.3 102.54c-0.49219-0.83594-1.7969-1.3398-3.7578-2.3398-1.9648-1-11.602-5.7266-13.398-6.3828-1.7969-0.65234-3.1055-0.98047-4.4141 0.98047-1.3086 1.9648-5.0703 6.3828-6.2148 7.6914-1.1445 1.3086-2.2891 1.4727-4.2539 0.49219-1.9648-0.98438-8.2812-3.0547-15.766-9.7383-5.8281-5.1953-9.7656-11.613-10.91-13.578-1.1445-1.9648-0.125-3.0273 0.85938-4.0039 0.88281-0.87891 1.9648-2.2891 2.9492-3.4336 0.98047-1.1445 1.3086-1.9648 1.9648-3.2734 0.65234-1.3086 0.32812-2.4531-0.16406-3.4336-0.49219-0.98047-4.4141-10.637-6.0469-14.57-1.5898-3.8242-3.2031-3.3086-4.4141-3.3672-1.1445-0.050781-2.4531-0.058594-3.7617-0.058594-1.3086 0-3.4336 0.49219-5.2305 2.457-1.7969 1.9648-6.8555 6.6992-6.8555 16.355 0 9.6562 7.0195 18.969 7.9961 20.277 0.98047 1.3086 13.805 21.074 33.441 29.535 19.637 8.4609 19.637 5.6367 23.195 5.2891 3.5586-0.35156 11.457-4.6797 13.074-9.207 1.6172-4.5234 1.6172-8.4023 1.1289-9.207z"/>
</svg>
